<svg width="22" height="21" viewBox="0 0 22 21" fill="none" xmlns="http://www.w3.org/2000/svg">
<path d="M10.2933 16.1334C10.3167 16.156 10.3413 16.1773 10.3669 16.1976C10.3781 16.2065 10.39 16.2142 10.4015 16.2225C10.4161 16.2331 10.4303 16.244 10.4455 16.2537C10.4596 16.2628 10.4743 16.2707 10.4887 16.2791C10.5022 16.2868 10.5154 16.295 10.5293 16.3021C10.5441 16.3099 10.5595 16.3164 10.5747 16.3232C10.589 16.3298 10.6031 16.3367 10.6179 16.3426C10.6327 16.3485 10.6479 16.3533 10.6629 16.3585C10.6787 16.3639 10.6941 16.3697 10.7102 16.3744C10.7253 16.3788 10.7406 16.3821 10.7558 16.3857C10.7722 16.3897 10.7884 16.3942 10.8051 16.3974C10.8226 16.4007 10.8403 16.4027 10.858 16.4051C10.8726 16.4071 10.887 16.4098 10.9019 16.4113C10.9347 16.4143 10.9676 16.4161 11.0005 16.4161C11.0335 16.4161 11.0664 16.4144 11.0991 16.4113C11.1142 16.4098 11.1287 16.4071 11.1436 16.4051C11.1611 16.4027 11.1785 16.4007 11.1959 16.3974C11.2129 16.3942 11.2295 16.3896 11.2461 16.3855C11.261 16.3819 11.276 16.3788 11.2907 16.3745C11.3071 16.3697 11.3229 16.3637 11.339 16.3582C11.3537 16.3531 11.3686 16.3484 11.3831 16.3426C11.3981 16.3367 11.4125 16.3297 11.4271 16.323C11.4421 16.3162 11.4572 16.3097 11.4719 16.3021C11.4859 16.2949 11.4991 16.2868 11.5126 16.2789C11.5271 16.2706 11.5417 16.2627 11.5558 16.2536C11.5706 16.2441 11.5845 16.2334 11.5987 16.2232C11.6107 16.2146 11.6229 16.2066 11.6345 16.1975C11.6588 16.1782 11.6821 16.1578 11.7044 16.1364C11.7055 16.1354 11.7067 16.1346 11.7077 16.1336L16.3745 11.633C16.765 11.2563 16.765 10.6457 16.3745 10.269C15.984 9.89245 15.3508 9.89238 14.9603 10.269L12.0005 13.1233V1.30643C12.0005 0.773798 11.5528 0.34198 11.0005 0.34198C10.4483 0.34198 10.0005 0.773798 10.0005 1.30643V13.1232L7.04108 10.269C6.65061 9.89238 6.01742 9.89238 5.62688 10.269C5.23635 10.6457 5.23635 11.2563 5.62688 11.633L10.2933 16.1334Z" fill="white"/>
<path d="M21 10.308C20.4477 10.308 20 10.7399 20 11.2725V18.6665H2V11.2725C2 10.7399 1.55227 10.308 1 10.308C0.447733 10.308 0 10.7399 0 11.2725V19.631C0 20.1636 0.447733 20.5954 1 20.5954H21C21.5523 20.5954 22 20.1636 22 19.631V11.2725C22 10.7399 21.5523 10.308 21 10.308Z" fill="white"/>
</svg>
