<svg width="35" height="32" viewBox="0 0 35 32" fill="none" xmlns="http://www.w3.org/2000/svg">
<path d="M27.708 14.5337H18.958V6.60622C18.958 6.25581 18.8044 5.91974 18.5309 5.67196C18.2574 5.42418 17.8865 5.28497 17.4997 5.28497C17.1129 5.28497 16.742 5.42418 16.4685 5.67196C16.195 5.91974 16.0414 6.25581 16.0414 6.60622V14.5337H7.29134C6.90457 14.5337 6.53364 14.6729 6.26014 14.9207C5.98665 15.1685 5.83301 15.5046 5.83301 15.855C5.83301 16.2054 5.98665 16.5415 6.26014 16.7892C6.53364 17.037 6.90457 17.1762 7.29134 17.1762H16.0414V25.1037C16.0414 25.4542 16.195 25.7902 16.4685 26.038C16.742 26.2858 17.1129 26.425 17.4997 26.425C17.8865 26.425 18.2574 26.2858 18.5309 26.038C18.8044 25.7902 18.958 25.4542 18.958 25.1037V17.1762H27.708C28.0948 17.1762 28.4658 17.037 28.7392 16.7892C29.0127 16.5415 29.1664 16.2054 29.1664 15.855C29.1664 15.5046 29.0127 15.1685 28.7392 14.9207C28.4658 14.6729 28.0948 14.5337 27.708 14.5337Z" fill="white"/>
</svg>
