<svg width="25" height="21" viewBox="0 0 25 21" fill="none" xmlns="http://www.w3.org/2000/svg">
<path d="M11.3428 20.0407C11.6538 20.3224 12.0718 20.4794 12.5102 20.4794C12.9435 20.4794 13.3717 20.3178 13.6776 20.0407L22.8385 11.7409C24.2302 10.48 24.9949 8.8034 25 7.02521C25 5.2424 24.2353 3.56582 22.8436 2.30492C21.4519 1.04402 19.6064 0.351217 17.6387 0.351217C15.7066 0.351217 13.8866 1.02093 12.5051 2.24026C11.1185 1.01631 9.29343 0.34198 7.35624 0.34198C5.39356 0.34198 3.54812 1.03478 2.1564 2.29106C0.764682 3.55196 0 5.22855 0 7.01136C0 8.78955 0.76978 10.4661 2.1615 11.727L11.3428 20.0407ZM3.04343 3.09471C4.19555 2.05089 5.73002 1.47356 7.36134 1.47356C8.99266 1.47356 10.5322 2.05089 11.6894 3.09933L12.0667 3.44112C12.1839 3.54735 12.342 3.60739 12.5102 3.60739C12.6733 3.60739 12.8365 3.54735 12.9537 3.44112L13.3208 3.10857C14.478 2.06013 16.0124 1.48279 17.6489 1.48279C19.2802 1.48279 20.8146 2.06013 21.9668 3.10395C23.124 4.15239 23.7561 5.54262 23.7561 7.02059C23.7561 8.49857 23.1189 9.88879 21.9617 10.9372L12.7957 19.2416C12.6478 19.3756 12.3777 19.3756 12.2247 19.2416L3.04853 10.928C1.89131 9.87956 1.25408 8.48934 1.25408 7.01136C1.25408 5.53338 1.89131 4.14316 3.04343 3.09471Z" fill="white"/>
</svg>
